<svg version="1.1" id="" xmlns="http://www.w3.org/2000/svg" xmlns:xlink="http://www.w3.org/1999/xlink"
	 viewBox="0 0 512 512" xml:space="preserve">
<g>
	<rect x="398.515" y="366.845" style="fill:#D4145A;" width="95.01" height="95.01"/>
	<rect x="303.505" y="366.845" style="fill:#D4145A;" width="95.01" height="95.01"/>
</g>
<rect x="208.495" y="366.845" style="fill:#9E005D;" width="95.01" height="95.01"/>
<rect x="113.485" y="366.845" style="fill:#93278F;" width="95.01" height="95.01"/>
<rect x="18.474" y="366.845" style="fill:#662D91;" width="95.01" height="95.01"/>
<rect x="398.515" y="271.835" style="fill:#0087CE;" width="95.01" height="95.01"/>
<rect x="303.505" y="271.835" style="fill:#008FD0;" width="95.01" height="95.01"/>
<rect x="208.495" y="271.835" style="fill:#0098D2;" width="95.01" height="95.01"/>
<rect x="113.485" y="271.835" style="fill:#00A4D4;" width="95.01" height="95.01"/>
<rect x="18.474" y="271.835" style="fill:#00B4D7;" width="95.01" height="95.01"/>
<rect x="398.515" y="176.825" style="fill:#595E62;" width="95.01" height="95.01"/>
<rect x="303.505" y="176.825" style="fill:#7E8488;" width="95.01" height="95.01"/>
<rect x="208.495" y="176.825" style="fill:#AFB6BB;" width="95.01" height="95.01"/>
<rect x="113.485" y="176.825" style="fill:#E7ECED;" width="95.01" height="95.01"/>
<rect x="18.474" y="176.825" style="fill:#F1F2F2;" width="95.01" height="95.01"/>
<rect x="398.515" y="81.814" style="fill:#FFD311;" width="95.01" height="95.01"/>
<rect x="303.505" y="81.814" style="fill:#FDB51E;" width="95.01" height="95.01"/>
<g>
	<polygon style="fill:#ED1C24;" points="303.505,81.814 303.505,176.825 208.495,176.825 208.495,81.814 240.165,81.814 	"/>
	<rect x="113.485" y="81.814" style="fill:#ED1C24;" width="95.01" height="95.01"/>
</g>
<rect x="18.474" y="81.814" style="fill:#C1272D;" width="95.01" height="95.01"/>
<g>
	<polygon style="fill:#364853;" points="493.526,461.856 493.526,504.082 18.474,504.082 18.474,461.856 113.485,461.856 
		208.495,461.856 303.505,461.856 398.515,461.856 	"/>
	<polygon style="fill:#364853;" points="240.165,7.918 240.165,81.814 208.495,81.814 113.485,81.814 18.474,81.814 18.474,7.918 	
		"/>
</g>
<path d="M248.082,73.897V0H10.557v512h490.887V73.897H248.082z M311.423,453.938v-79.175h79.175v79.175H311.423z M311.423,358.928
	v-79.175h79.175v79.175H311.423z M200.577,184.742v79.175h-79.175v-79.175H200.577z M200.577,279.753v79.175h-79.175v-79.175
	H200.577z M216.412,279.753h79.175v79.175h-79.175V279.753z M311.423,263.918v-79.175h79.175v79.175H311.423z M295.588,263.918
	h-79.175v-79.175h79.175V263.918z M200.577,168.907h-79.175V89.732h79.175V168.907z M121.402,374.763h79.175v79.175h-79.175V374.763
	z M216.412,374.763h79.175v79.175h-79.175V374.763z M390.598,89.732v79.175h-79.175V89.732H390.598z M295.588,168.907h-79.175
	V89.732h79.175V168.907z M26.392,15.835h205.856v58.062H26.392V15.835z M26.392,89.732h79.175v79.175H26.392V89.732z
	 M26.392,184.742h79.175v79.175H26.392V184.742z M26.392,279.753h79.175v79.175H26.392V279.753z M26.392,374.763h79.175v79.175
	H26.392V374.763z M485.608,496.165H26.392v-26.392h459.217V496.165z M406.433,453.938v-79.175h79.175v79.175H406.433z
	 M406.433,358.928v-79.175h79.175v79.175H406.433z M406.433,263.918v-79.175h79.175v79.175H406.433z M406.433,168.907V89.732h79.175
	v79.175H406.433z"/>
<g>
	<rect x="44.866" y="36.948" style="fill:#FFFFFF;" width="47.505" height="15.835"/>
	<rect x="108.206" y="36.948" style="fill:#FFFFFF;" width="105.567" height="15.835"/>
	<rect x="44.866" y="110.845" style="fill:#FFFFFF;" width="21.113" height="15.835"/>
	<rect x="234.887" y="110.845" style="fill:#FFFFFF;" width="21.113" height="15.835"/>
	<rect x="234.887" y="205.856" style="fill:#FFFFFF;" width="21.113" height="15.835"/>
	<rect x="329.897" y="205.856" style="fill:#FFFFFF;" width="21.113" height="15.835"/>
	<rect x="139.876" y="300.866" style="fill:#FFFFFF;" width="21.113" height="15.835"/>
	<rect x="44.866" y="395.876" style="fill:#FFFFFF;" width="21.113" height="15.835"/>
	<rect x="329.897" y="395.876" style="fill:#FFFFFF;" width="21.113" height="15.835"/>
	<rect x="424.907" y="300.866" style="fill:#FFFFFF;" width="21.113" height="15.835"/>
	<rect x="424.907" y="110.845" style="fill:#FFFFFF;" width="21.113" height="15.835"/>
</g>
<g>
</g>
<g>
</g>
<g>
</g>
<g>
</g>
<g>
</g>
<g>
</g>
<g>
</g>
<g>
</g>
<g>
</g>
<g>
</g>
<g>
</g>
<g>
</g>
<g>
</g>
<g>
</g>
<g>
</g>
</svg>
