<svg height="800px" width="800px" version="1.1" id="Layer_1" xmlns="http://www.w3.org/2000/svg" xmlns:xlink="http://www.w3.org/1999/xlink" 
	 viewBox="0 0 512 512" xml:space="preserve">
<path style="fill:#FFCE47;" d="M425.484,207.989c71.707,41.398,96.27,133.092,54.873,204.799s-133.092,96.27-204.799,54.873
	c-6.975-4.02-13.498-8.527-19.558-13.44l30.391-163.204l117.67-93.246C411.349,200.562,418.51,203.968,425.484,207.989z"/>
<path style="fill:#FF4181;" d="M86.516,207.989c-71.707,41.398-96.27,133.092-54.873,204.799s133.092,96.27,204.799,54.873
	c6.975-4.02,13.498-8.527,19.558-13.44L225.61,291.016l-117.67-93.246C100.652,200.562,93.491,203.968,86.516,207.989z"/>
<path style="fill:#4EB9FF;" d="M405.927,174.111c0,8.052-0.637,15.954-1.865,23.659L256,256.165L107.939,197.77
	c-1.228-7.705-1.865-15.607-1.865-23.659c0-82.807,67.131-149.926,149.926-149.926S405.927,91.304,405.927,174.111z"/>
<path style="fill:#FF755C;" d="M309.564,314.189H202.437C194.13,366.258,213.919,420.134,256,454.221
	C298.082,420.134,317.871,366.258,309.564,314.189z"/>
<path style="fill:#85C250;" d="M256,221.406l53.563,92.783c49.253-18.851,86.028-62.937,94.498-116.419
	C353.499,178.363,296.935,188.176,256,221.406z"/>
<path style="fill:#3B8BC0;" d="M107.939,197.77c8.47,53.482,45.244,97.568,94.498,116.419L256,221.406
	C215.066,188.176,158.502,178.363,107.939,197.77z"/>
<path style="fill:#174461;" d="M291.315,262.862c9.431,16.348,15.444,33.739,18.248,51.327c-16.638,6.361-34.689,9.848-53.563,9.848
	s-36.925-3.487-53.563-9.848c2.804-17.588,8.817-34.979,18.248-51.327c9.431-16.337,21.481-30.24,35.315-41.456
	C269.834,232.621,281.884,246.525,291.315,262.862z"/>
<path style="fill:#01121C;" d="M431.278,197.952c-4.786-2.763-9.656-5.251-14.592-7.472c0.545-5.385,0.825-10.847,0.825-16.373
	c0-89.057-72.454-161.509-161.509-161.509S94.49,85.05,94.49,174.107c0,5.527,0.28,10.988,0.825,16.373
	c-4.936,2.221-9.807,4.709-14.592,7.472C3.598,242.48-22.922,341.452,21.607,418.578c21.57,37.361,56.4,64.086,98.07,75.252
	c13.915,3.728,28.034,5.573,42.065,5.573c27.986,0,55.607-7.34,80.492-21.708c4.767-2.752,9.357-5.722,13.767-8.892
	c4.41,3.17,9,6.141,13.767,8.892c24.887,14.369,52.504,21.709,80.492,21.708c14.027,0,28.152-1.845,42.065-5.573
	c41.67-11.166,76.5-37.891,98.07-75.252C534.922,341.454,508.403,242.48,431.278,197.952z M117.663,174.107
	c0-76.279,62.058-138.337,138.337-138.337s138.338,62.057,138.338,138.337c0,2.746-0.089,5.471-0.248,8.178
	c-47.63-13.335-98.629-3.807-138.089,24.587c-39.459-28.395-90.46-37.921-138.089-24.587
	C117.753,179.578,117.663,176.853,117.663,174.107z M295.102,373.628c-6.8,25.377-20.343,47.788-39.103,65.264
	c-18.759-17.477-32.303-39.887-39.103-65.264c-3.901-14.559-5.392-29.384-4.538-44.006c13.887,3.902,28.523,5.995,43.641,5.995
	s29.754-2.094,43.641-5.995C300.494,344.245,299.003,359.068,295.102,373.628z M256,312.445c-14.005,0-27.529-2.099-40.28-5.988
	c3.066-13.101,8.08-25.821,14.998-37.803c6.992-12.111,15.562-22.754,25.286-31.844c9.723,9.088,18.287,19.735,25.278,31.844
	c6.917,11.98,11.932,24.702,14.998,37.803C283.529,310.346,270.006,312.445,256,312.445z M193.993,297.744
	c-36.201-18.23-63.353-51.89-72.747-92.294c39.706-12.071,82.455-5.374,116.351,16.888c-10.296,10.06-19.404,21.666-26.945,34.73
	C203.186,270,197.621,283.669,193.993,297.744z M301.35,257.068c-7.543-13.065-16.652-24.672-26.949-34.733
	c22.675-14.893,49.312-22.821,76.354-22.821c13.379,0,26.855,1.949,39.998,5.944c-9.396,40.4-36.547,74.058-72.746,92.287
	C314.38,283.669,308.815,270,301.35,257.068z M230.647,457.627c-32,18.476-69.28,23.383-104.974,13.82
	c-35.692-9.563-65.524-32.454-83.999-64.454C3.535,340.933,26.249,256.16,92.309,218.02c2.379-1.373,4.783-2.658,7.207-3.874
	c12.258,47.886,45.974,87.27,90.254,107.259c-1.96,19.275-0.418,38.946,4.746,58.221c7.621,28.444,22.498,53.697,43.053,73.725
	C235.311,454.833,233.006,456.266,230.647,457.627z M470.326,406.993c-18.475,32.001-48.308,54.891-83.999,64.454
	c-35.694,9.564-72.973,4.655-104.974-13.82c-2.359-1.363-4.662-2.793-6.922-4.276c20.555-20.028,35.432-45.28,43.053-73.725
	c5.165-19.275,6.707-38.946,4.746-58.221c44.277-19.988,77.992-59.37,90.252-107.253c2.424,1.217,4.83,2.496,7.208,3.869
	C485.751,256.16,508.465,340.933,470.326,406.993z"/>
<g>
</g>
<g>
</g>
<g>
</g>
<g>
</g>
<g>
</g>
<g>
</g>
<g>
</g>
<g>
</g>
<g>
</g>
<g>
</g>
<g>
</g>
<g>
</g>
<g>
</g>
<g>
</g>
<g>
</g>
</svg>
